# xmcd CD database file
#
# Track frame offsets:
#	150
#	17193
#	41367
#	56578
#	82133
#	103444
#
# Disc length: 1662 seconds
#
# Revision: 0
# Processed by: cddbd v1.5.2PL0 Copyright (c) Steve Scherf et al.
# Submitted via: CDex 2.21
#
DISCID=4d067c06
DTITLE=Cristina Vane - Troubled Sleep
DYEAR=2017
DGENRE=Blues
TTITLE0=Cristina Vane - Troubled Sleep
TTITLE1=Cristina Vane - Sending All My Love
TTITLE2=Cristina Vane - Orange Grove Blues
TTITLE3=Cristina Vane - Shape Shifter
TTITLE4=Cristina Vane - Sunday Morning
TTITLE5=Cristina Vane - Long Way Home
EXTD=YEAR: 2017
EXTT0=
EXTT1=
EXTT2=
EXTT3=
EXTT4=
EXTT5=
PLAYORDER=
